1.9Hzhigh3min_grf.mot
version=1
nRows=27
nColumns 19
inDegrees=yes
endheader
time	1_ground_force_vx	1_ground_force_vy	1_ground_force_vz	1_ground_force_px	1_ground_force_py	1_ground_force_pz	1_ground_torque_x	1_ground_torque_y	1_ground_torque_z	2_ground_force_vx	2_ground_force_vy	2_ground_force_vz	2_ground_force_px	2_ground_force_py	2_ground_force_pz	2_ground_torque_x	2_ground_torque_y	2_ground_torque_z
            2.502500	            0.278225	            1.976881	            1.429353	           -0.233013	            0.005581	           -0.255695	           -0.343555	            0.120436	           -0.024569	            0.934408	            0.560682	           -1.359342	           -0.232311	            0.006130	           -0.833667	           -0.150129	           -0.047672	           -0.037805
            2.503000	            0.277767	            3.239134	            1.343052	           -0.233013	            0.005581	           -0.255695	           -0.396918	            0.157638	           -0.080716	            1.027422	            0.745336	           -1.405653	           -0.232311	            0.006130	           -0.833667	           -0.206551	           -0.047337	           -0.188583
            2.503500	            0.324116	            2.337224	            1.476641	           -0.233013	            0.005581	           -0.255695	           -0.252012	            0.092988	           -0.079366	            0.793837	            0.560342	           -1.406211	           -0.232311	            0.006130	           -0.833667	           -0.187785	           -0.019584	            0.000012
            2.504000	            0.232562	            1.616144	            1.473777	           -0.233013	            0.005581	           -0.255695	           -0.288982	           -0.055117	           -0.046197	            0.838049	            1.296937	           -1.356674	           -0.232311	            0.006130	           -0.833667	           -0.319426	            0.008636	           -0.094081
            2.504500	            0.324197	            2.517293	            1.523270	           -0.233013	            0.005581	           -0.255695	           -0.441836	           -0.239648	           -0.117924	            0.794482	            0.376361	           -1.453796	           -0.232311	            0.006130	           -0.833667	           -0.300719	            0.036860	           -0.037438
            2.505000	            0.278109	            3.238544	            1.480620	           -0.233013	            0.005581	           -0.255695	           -0.346521	           -0.064027	           -0.119388	            0.886893	            0.744661	           -1.358665	           -0.232311	            0.006130	           -0.833667	           -0.225611	            0.046584	           -0.037436
            2.505500	            0.369651	            2.157557	            1.338187	           -0.233013	            0.005581	           -0.255695	           -0.396387	            0.084056	           -0.152278	            0.701385	            0.192376	           -1.595197	           -0.232311	            0.006130	           -0.833667	           -0.225450	            0.008572	            0.018980
            2.506000	            0.231439	            2.158710	            1.063393	           -0.233013	            0.005581	           -0.255695	           -0.253185	            0.157796	           -0.120585	            0.794502	            0.376193	           -1.406868	           -0.232311	            0.006130	           -0.833667	           -0.169194	            0.018766	           -0.131812
            2.506500	            0.736493	            1.616831	            1.334958	           -0.233013	            0.005581	           -0.255695	           -0.414646	            0.157926	           -0.079864	            0.748317	            0.191876	           -1.407505	           -0.232311	            0.006130	           -0.833667	           -0.206757	            0.018563	           -0.112946
            2.507000	            0.369974	            2.877834	            1.524702	           -0.233013	            0.005581	           -0.255695	           -0.461104	           -0.045116	           -0.209091	            0.936381	            0.008404	           -1.408242	           -0.232311	            0.006130	           -0.833667	           -0.206663	           -0.009728	           -0.131897
            2.507500	            0.278192	            2.157146	            1.430126	           -0.233013	            0.005581	           -0.255695	           -0.381408	           -0.101010	           -0.119421	            0.747590	            0.376526	           -1.547632	           -0.232311	            0.006130	           -0.833667	           -0.169119	            0.008977	           -0.037595
            2.508000	            0.278501	            2.336822	            1.568467	           -0.233013	            0.005581	           -0.255695	           -0.331156	           -0.156294	           -0.157386	            0.793776	            0.560844	           -1.546995	           -0.232311	            0.006130	           -0.833667	           -0.169365	            0.066029	           -0.131643
            2.508500	            0.324197	            2.517293	            1.523270	           -0.233013	            0.005581	           -0.255695	           -0.254092	           -0.110285	           -0.099037	            0.937025	           -0.175577	           -1.455827	           -0.232311	            0.006130	           -0.833667	           -0.206765	            0.018630	           -0.131796
            2.509000	            0.094590	            3.418971	            1.435992	           -0.233013	            0.005581	           -0.255695	           -0.307232	            0.093113	           -0.145435	            0.749564	           -0.175751	           -1.596531	           -0.232311	            0.006130	           -0.833667	           -0.244200	           -0.010133	           -0.056480
            2.509500	            0.461157	            2.518303	            1.293649	           -0.233013	            0.005581	           -0.255695	           -0.394625	            0.185693	           -0.129151	            0.749605	           -0.176086	           -1.502675	           -0.232311	            0.006130	           -0.833667	           -0.225398	           -0.010199	           -0.018788
            2.510000	            0.323840	            1.977283	            1.337528	           -0.233013	            0.005581	           -0.255695	           -0.414916	            0.130006	           -0.097589	            0.696856	            1.480410	           -1.309029	           -0.232311	            0.006130	           -0.833667	           -0.281678	           -0.029376	            0.000019
            2.510500	            0.232041	            1.977462	            1.291899	           -0.233013	            0.005581	           -0.255695	           -0.375299	           -0.055059	           -0.064794	            0.744206	            1.297770	           -1.685131	           -0.232311	            0.006130	           -0.833667	           -0.150504	            0.056308	           -0.037434
            2.511000	            0.553478	            2.156806	            1.521155	           -0.233013	            0.005581	           -0.255695	           -0.328871	           -0.147248	           -0.070426	            0.887517	            0.560847	           -1.453179	           -0.232311	            0.006130	           -0.833667	           -0.300599	           -0.000816	           -0.075273
            2.511500	            0.141412	            1.795409	            1.704057	           -0.233013	            0.005581	           -0.255695	           -0.336464	           -0.110540	           -0.069031	            0.653226	            0.560336	           -1.546935	           -0.232311	            0.006130	           -0.833667	           -0.225662	            0.056171	           -0.075103
            2.512000	            0.186683	            3.057867	            1.571786	           -0.233013	            0.005581	           -0.255695	           -0.200252	           -0.008416	           -0.161012	            0.888140	            0.377034	           -1.547692	           -0.232311	            0.006130	           -0.833667	           -0.225576	            0.027948	           -0.112904
            2.512500	            0.186899	            1.255407	            1.518201	           -0.233013	            0.005581	           -0.255695	           -0.385023	            0.121195	           -0.216328	            1.030081	            0.008743	           -1.408281	           -0.232311	            0.006130	           -0.833667	           -0.225440	           -0.009863	           -0.113039
            2.513000	            0.460588	            2.519286	            1.064370	           -0.233013	            0.005581	           -0.255695	           -0.309661	            0.148567	           -0.091925	            0.935011	            0.377036	           -1.500784	           -0.232311	            0.006130	           -0.833667	           -0.206553	           -0.028970	           -0.037714
            2.513500	            0.415787	            1.796642	            1.428239	           -0.233013	            0.005581	           -0.255695	           -0.418601	            0.092916	           -0.056226	            1.122451	            0.377378	           -1.407007	           -0.232311	            0.006130	           -0.833667	           -0.169032	           -0.028431	           -0.150831
            2.514000	            0.415868	            1.976711	            1.474868	           -0.233013	            0.005581	           -0.255695	           -0.383193	           -0.064052	           -0.094590	            0.702796	           -0.176590	           -1.408799	           -0.232311	            0.006130	           -0.833667	           -0.187827	           -0.019248	           -0.094239
            2.514500	            0.277734	            3.419399	            1.343825	           -0.233013	            0.005581	           -0.255695	           -0.359675	           -0.110010	           -0.175953	            0.842537	            0.009238	           -1.736698	           -0.232311	            0.006130	           -0.833667	           -0.300941	            0.102894	            0.000499
            2.515000	            0.278273	            2.337216	            1.476755	           -0.233013	            0.005581	           -0.255695	           -0.345757	           -0.055106	           -0.044127	            0.699953	            0.561510	           -1.828524	           -0.232311	            0.006130	           -0.833667	           -0.187981	            0.027882	           -0.056370
            2.515500	            0.004093	            2.515855	            1.845058	           -0.233013	            0.005581	           -0.255695	           -0.342925	            0.018970	           -0.111946	            0.747590	            0.376526	           -1.547632	           -0.232311	            0.006130	           -0.833667	           -0.206732	            0.018361	           -0.056395
